<?xml version="1.0"?>
<svg xmlns="http://www.w3.org/2000/svg" xmlns:xlink="http://www.w3.org/1999/xlink" xmlns:svgjs="http://svgjs.com/svgjs" version="1.1" width="512" height="512" x="0" y="0" viewBox="0 0 511.927 511.927" style="enable-background:new 0 0 512 512" xml:space="preserve" class=""><rect width="511.927" height="511.927" fill="#ffffff" shape="square"/><g transform="matrix(0.7,0,0,0.7,76.78904342651367,76.78890838623047)"><link type="text/css" rel="stylesheet" id="dark-mode-custom-link"/><link type="text/css" rel="stylesheet" id="dark-mode-general-link"/><style lang="en" type="text/css" id="dark-mode-custom-style"/><style lang="en" type="text/css" id="dark-mode-native-style"/><g xmlns="http://www.w3.org/2000/svg"><path d="m496.899.063c-107.348.099-212.523 45.282-288.585 123.979l-27.046 27.046-28.754-28.754-84.879 23.958-67.635 67.634 59.212 59.214-.001.001 3.062 3.061-27.853 57.46 18.359 18.359-44.905 44.906 21.213 21.213 44.905-44.905 21.717 21.719-95.096 95.094 21.213 21.213 95.096-95.095 21.717 21.717-44.907 44.907 21.213 21.213 44.907-44.907 18.359 18.36 57.462-27.853 62.274 62.274 67.629-67.626 24.041-84.809-28.831-28.829 27.045-27.045c37.509-36.154 68.597-80.734 89.905-128.928 40.467-91.521 33.292-165 34.191-174.591zm-413.585 172.975 60.422-17.054 16.317 16.316-79.629 79.628-37.999-38.002zm101.018 268.113-113.607-113.609 14.002-28.884 128.492 128.491zm171.619-72.946-17.108 60.354-40.896 40.894-38-37.999 79.625-79.625zm10.966-86.145-27.343 27.343-.003-.003-100.835 100.836-137.097-137.095c10.108-10.107 91.088-91.086 100.842-100.84 3.156-3.156-10.724 10.725 27.322-27.325 66.815-69.171 157.838-110.413 251.764-114.566-4.149 93.993-45.421 184.971-114.65 251.65z" fill="#000000" data-original="#000000" style=""/><path d="m367.495 241.092c26.69-26.69 26.711-70.097.048-96.76-12.895-12.895-30.061-19.997-48.336-19.997-37.725 0-68.393 30.4-68.384 68.355.005 18.283 7.111 35.455 20.01 48.354 26.409 26.407 69.855 26.856 96.662.048zm-48.288-86.757c10.262 0 19.895 3.981 27.123 11.21 14.966 14.967 14.944 39.341-.048 54.334-7.181 7.18-16.792 11.134-27.064 11.134-21.466 0-38.389-17.211-38.395-38.332-.003-10.26 17.372-38.346 38.384-38.346z" fill="#000000" data-original="#000000" style=""/></g></g></svg>
