<?xml version="1.0"?>
<svg xmlns="http://www.w3.org/2000/svg" xmlns:xlink="http://www.w3.org/1999/xlink" xmlns:svgjs="http://svgjs.com/svgjs" version="1.1" width="512" height="512" x="0" y="0" viewBox="0 0 24 24" style="enable-background:new 0 0 512 512" xml:space="preserve"><rect width="24" height="24" fill="#ffffff" shape="square"/><g transform="matrix(0.7,0,0,0.7,3.6000423789024367,3.5999999284744266)"><link type="text/css" rel="stylesheet" id="dark-mode-custom-link"/><link type="text/css" rel="stylesheet" id="dark-mode-general-link"/><style lang="en" type="text/css" id="dark-mode-custom-style"/><style lang="en" type="text/css" id="dark-mode-native-style"/><path xmlns="http://www.w3.org/2000/svg" d="m13.7 24h-3.4c-.694 0-1.308-.493-1.458-1.172l-.461-2.048c-.768-.312-1.498-.735-2.176-1.263l-1.995.629c-.678.214-1.416-.077-1.756-.682l-1.696-2.934c-.346-.614-.229-1.375.279-1.854l1.542-1.417c-.053-.425-.079-.847-.079-1.259s.026-.834.079-1.259l-1.537-1.413c-.514-.483-.63-1.244-.287-1.854l1.702-2.944c.337-.602 1.08-.887 1.751-.677l1.997.63c.679-.527 1.408-.951 2.175-1.263l.463-2.05c.149-.677.762-1.17 1.457-1.17h3.4c.694 0 1.308.493 1.458 1.172l.462 2.048c.767.312 1.496.735 2.175 1.263l1.995-.63c.674-.208 1.415.075 1.756.682l1.696 2.935c.346.615.229 1.375-.279 1.854l-1.542 1.417c.053.425.079.847.079 1.259s-.026.834-.079 1.259l1.537 1.413c.002.001.004.003.005.004.509.479.625 1.24.282 1.85l-1.702 2.944c-.338.602-1.076.885-1.751.678l-1.997-.63c-.678.527-1.408.951-2.176 1.263l-.462 2.05c-.149.676-.762 1.169-1.457 1.169zm-7.39-5.54c.114 0 .228.039.318.114.725.598 1.517 1.058 2.354 1.367.16.059.278.194.315.359l.521 2.31c.05.227.252.39.482.39h3.4c.229 0 .432-.163.481-.389l.521-2.312c.037-.165.155-.3.314-.358.838-.31 1.63-.77 2.354-1.367.131-.108.31-.143.469-.091l2.25.71c.229.069.474-.021.584-.219l1.702-2.944c.113-.202.074-.461-.098-.624l-1.728-1.588c-.123-.112-.182-.278-.156-.442.072-.465.107-.928.107-1.376s-.035-.911-.104-1.376c-.025-.164.033-.33.156-.442l1.73-1.59c.169-.159.208-.419.092-.627l-1.696-2.935c-.114-.203-.359-.294-.589-.222l-2.248.709c-.159.049-.338.017-.469-.091-.725-.597-1.517-1.057-2.355-1.367-.159-.059-.277-.194-.314-.359l-.521-2.31c-.05-.227-.252-.39-.482-.39h-3.4c-.23 0-.432.163-.482.388l-.521 2.312c-.037.165-.155.3-.314.359-.838.31-1.63.77-2.355 1.367-.131.108-.31.141-.469.091l-2.25-.71c-.226-.07-.473.021-.584.218l-1.702 2.945c-.113.203-.074.463.1.626l1.726 1.586c.123.112.182.278.156.442-.07.465-.105.928-.105 1.376s.035.911.104 1.376c.025.164-.033.33-.156.442l-1.73 1.59c-.169.159-.208.419-.092.627l1.696 2.935c.113.202.36.296.589.223l2.248-.709c.049-.016.1-.024.151-.024z" fill="#000000" data-original="#000000" style=""/><path xmlns="http://www.w3.org/2000/svg" d="m13 18h-2c-.481 0-1-.369-1-1.18v-1.32c0-.586-.253-1.122-.676-1.433-1.17-.862-1.852-2.238-1.823-3.683.046-2.382 2.034-4.349 4.433-4.384 1.192-.027 2.368.442 3.235 1.296.858.846 1.331 1.974 1.331 3.175 0 1.422-.658 2.728-1.806 3.582-.434.324-.694.867-.694 1.454v1.493c0 .552-.448 1-1 1zm-1-11c-.018 0-.035 0-.053 0-1.833.026-3.412 1.585-3.446 3.404-.022 1.12.507 2.188 1.416 2.857.678.499 1.083 1.336 1.083 2.239v1.32c0 .149.036.198.036.198l1.964-.018v-1.493c0-.901.41-1.744 1.097-2.256.892-.663 1.403-1.676 1.403-2.779 0-.932-.367-1.806-1.033-2.463-.661-.652-1.535-1.009-2.467-1.009z" fill="#000000" data-original="#000000" style=""/><path xmlns="http://www.w3.org/2000/svg" d="m13.5 16h-3c-.276 0-.5-.224-.5-.5s.224-.5.5-.5h3c.276 0 .5.224.5.5s-.224.5-.5.5z" fill="#000000" data-original="#000000" style=""/></g></svg>
